<?xml version="1.0" encoding="UTF-8" standalone="no"?>

<svg xmlns="http://www.w3.org/2000/svg"
     width="1200px" height="600px"
    >
    <style>
    path{
    color: red;
    }
    </style>
  <path id="パス" class="path"
        fill="none" stroke="black" stroke-width="0.5"
        d="M 644.69,508.00
           C 657.08,508.00 667.27,503.11 675.12,493.95
             675.12,493.95 665.06,482.09 665.06,482.09
             659.91,487.62 653.59,491.50 645.33,491.50
             630.23,491.50 620.44,479.00 620.44,458.25
             620.44,437.77 631.27,425.39 645.72,425.39
             652.94,425.39 658.48,428.73 663.39,433.38
             663.39,433.38 673.33,421.27 673.33,421.27
             667.14,414.81 657.45,409.00 645.33,409.00
             621.20,409.00 600.95,427.45 600.95,458.89
             600.95,490.72 620.56,508.00 644.69,508.00 Z
           M 706.98,508.00
           C 715.23,508.00 722.47,503.88 728.78,498.47
             728.78,498.47 729.30,498.47 729.30,498.47
             729.30,498.47 730.59,506.00 730.59,506.00
             730.59,506.00 746.08,506.00 746.08,506.00
             746.08,506.00 746.08,463.86 746.08,463.86
             746.08,442.97 736.66,432.00 718.34,432.00
             706.98,432.00 696.67,436.27 688.16,441.55
             688.16,441.55 694.98,454.06 694.98,454.06
             701.70,450.19 708.14,447.23 714.86,447.23
             723.75,447.23 726.84,452.64 727.23,459.73
             698.08,462.83 685.58,470.94 685.58,486.41
             685.58,498.84 694.08,508.00 706.98,508.00 Z
           M 713.17,493.17
           C 707.62,493.17 703.62,490.72 703.62,485.02
             703.62,478.55 709.56,473.62 727.23,471.42
             727.23,471.42 727.23,486.05 727.23,486.05
             722.59,490.58 718.59,493.17 713.17,493.17 Z
           M 765.19,506.00
           C 765.19,506.00 784.14,506.00 784.14,506.00
             784.14,506.00 784.14,463.22 784.14,463.22
             788.14,452.52 794.98,448.78 800.66,448.78
             803.62,448.78 805.69,449.17 808.27,449.94
             808.27,449.94 811.50,434.00 811.50,434.00
             809.30,432.66 806.98,432.00 802.98,432.00
             795.50,432.00 787.75,437.17 782.47,446.58
             782.47,446.58 782.08,446.58 782.08,446.58
             782.08,446.58 780.66,434.00 780.66,434.00
             780.66,434.00 765.19,434.00 765.19,434.00
             765.19,434.00 765.19,506.00 765.19,506.00 Z
           M 850.66,508.00
           C 859.56,508.00 868.72,504.91 875.81,500.02
             875.81,500.02 869.36,488.30 869.36,488.30
             864.20,491.59 859.05,493.44 853.11,493.44
             842.41,493.44 834.66,487.11 833.11,475.00
             833.11,475.00 877.62,475.00 877.62,475.00
             878.14,473.33 878.52,469.84 878.52,466.23
             878.52,446.58 868.20,432.00 848.34,432.00
             831.19,432.00 814.67,446.58 814.67,469.72
             814.67,493.95 830.41,508.00 850.66,508.00 Z
           M 832.86,462.36
           C 834.28,452.06 840.98,446.72 848.59,446.72
             857.88,446.72 862.27,452.83 862.27,462.36
             862.27,462.36 832.86,462.36 832.86,462.36 Z
           M 925.66,508.00
           C 934.56,508.00 943.72,504.91 950.81,500.02
             950.81,500.02 944.36,488.30 944.36,488.30
             939.20,491.59 934.05,493.44 928.11,493.44
             917.41,493.44 909.66,487.11 908.11,475.00
             908.11,475.00 952.62,475.00 952.62,475.00
             953.14,473.33 953.52,469.84 953.52,466.23
             953.52,446.58 943.20,432.00 923.34,432.00
             906.19,432.00 889.67,446.58 889.67,469.72
             889.67,493.95 905.41,508.00 925.66,508.00 Z
           M 907.86,462.36
           C 909.28,452.06 915.98,446.72 923.59,446.72
             932.88,446.72 937.27,452.83 937.27,462.36
             937.27,462.36 907.86,462.36 907.86,462.36 Z
           M 969.19,506.00
           C 969.19,506.00 988.14,506.00 988.14,506.00
             988.14,506.00 988.14,463.22 988.14,463.22
             992.14,452.52 998.98,448.78 1004.66,448.78
             1007.62,448.78 1009.69,449.17 1012.27,449.94
             1012.27,449.94 1015.50,434.00 1015.50,434.00
             1013.30,432.66 1010.98,432.00 1006.98,432.00
             999.50,432.00 991.75,437.17 986.47,446.58
             986.47,446.58 986.08,446.58 986.08,446.58
             986.08,446.58 984.66,434.00 984.66,434.00
             984.66,434.00 969.19,434.00 969.19,434.00
             969.19,434.00 969.19,506.00 969.19,506.00 Z" />
</svg>
